<svg width="180" height="182" viewBox="0 0 180 182" fill="none" xmlns="http://www.w3.org/2000/svg">
<g clip-path="url(#clip0_203_56)">
<path d="M0.0612462 2.51898C-0.313519 1.00255 1.09343 -0.351557 2.59531 0.0813076L46.3508 12.6709C46.7435 12.67 47.1284 12.7809 47.4603 12.9907L133.755 37.82C134.112 37.827 134.465 37.9289 134.772 38.1123L178.53 50.7033C180.033 51.1362 180.504 53.0335 179.376 54.117L47.3288 181.06C46.2017 182.143 44.3237 181.601 43.9489 180.083L22.0452 91.4636C22.0159 91.3725 21.9929 91.2795 21.9762 91.1853L0.0612462 2.51898ZM37.542 137.234L47.0483 175.695L75.6753 148.174L37.542 137.234ZM67.0297 106.818L39.3132 133.518L76.2357 144.111L67.0297 106.818ZM71.1437 106.533L80.3209 143.708L107.961 117.136L71.1437 106.533ZM26.7976 93.7621L36.0148 131.057L63.6983 104.389L26.7976 93.7621ZM99.7144 75.2965L71.5536 102.425L109.081 113.233L99.7144 75.2965ZM103.66 74.3317L113.027 112.266L141.266 85.1203L103.66 74.3317ZM56.1425 62.7083L27.9212 89.8607L65.518 100.687L56.1425 62.7083ZM60.073 61.6844L69.2797 98.9769L96.9962 72.277L60.073 61.6844ZM15.7395 49.0196L25.1087 86.9311L53.3096 59.7984L15.7395 49.0196ZM132.593 43.7564L104.877 70.4556L141.799 81.0495L132.593 43.7564ZM136.554 42.8499L145.891 80.6736L174.022 53.6308L136.554 42.8499ZM88.8399 31.2511L61.2486 57.7971L97.9974 68.3397L88.8399 31.2511ZM92.7781 30.254L101.997 67.5914L129.722 40.8837L92.7781 30.254ZM45.2377 18.6074L17.5212 45.3073L54.4437 55.8998L45.2377 18.6074ZM49.2019 17.7156L58.3855 54.9146L86.0345 28.3138L49.2019 17.7156ZM4.84742 4.95385L14.2152 42.8541L42.3556 15.746L4.84742 4.95385Z" fill="white"/>
</g>
<defs>
<clipPath id="clip0_203_56">
<rect width="180" height="182" fill="white"/>
</clipPath>
</defs>
</svg>
