<svg width="127" height="127" viewBox="0 0 127 127" fill="none" xmlns="http://www.w3.org/2000/svg">
<g clip-path="url(#clip0_182_504)">
<path d="M97.1123 37.4706C84.1846 22.9765 51.3653 9.43707 9.19281 56.789C37.2329 32.5989 64.8229 36.3371 72.078 44.7469C76.8684 50.2997 75.5329 58.1554 66.8776 66.3691L62.2167 60.9664L61.2238 63.4987L45.3687 103.861L44.2281 106.76L47.2669 106.061L89.5168 96.2951L92.1674 95.6841L85.3426 87.7731C104.561 70.3603 107.584 49.8159 97.7117 38.1653C97.5168 37.9348 97.3178 37.7007 97.1123 37.4706ZM90.6499 41.9797C100.622 53.2385 97.3628 70.1231 79.5435 86.0795L86.1243 93.7077L49.5677 102.16L63.2853 67.2335L70.8171 75.964C89.2117 59.5559 90.7633 44.7691 75.0905 32.4118C81.9024 34.6977 87.1111 37.9846 90.6499 41.9794L90.6499 41.9797Z" fill="white"/>
</g>
<defs>
<clipPath id="clip0_182_504">
<rect width="90" height="90" fill="white" transform="translate(68.1455) rotate(49.2157)"/>
</clipPath>
</defs>
</svg>
