<svg width="110" height="110" viewBox="0 0 110 110" fill="none" xmlns="http://www.w3.org/2000/svg">
<g clip-path="url(#clip0_133_775)">
<path d="M68.75 0V37.1319C71.8901 38.9398 74.4984 41.5434 76.3119 44.6803C78.1255 47.8172 79.0804 51.3766 79.0804 55C79.0804 58.6234 78.1255 62.1828 76.3119 65.3197C74.4984 68.4566 71.8901 71.0602 68.75 72.8681V110L32.0856 82.5H0V27.5H32.0856L68.75 0ZM55 27.5L36.6644 41.25H13.75V68.75H36.6644L55 82.5V27.5Z" fill="white"/>
<path d="M93.5 22L88.0069 17.875L79.75 28.8681L85.25 32.9931C87.3356 34.5608 89.1875 36.4174 90.75 38.5069C94.2081 43.0994 96.25 48.7988 96.25 55C96.25 61.2013 94.2081 66.8938 90.75 71.5C89.1865 73.5847 87.3347 75.4365 85.25 77L79.75 81.1319L88.0069 92.1319L93.5069 88C96.629 85.6538 99.4021 82.876 101.743 79.75C107.11 72.6153 110.008 63.9277 110 55C110 45.7188 106.927 37.1388 101.75 30.25C99.4048 27.123 96.627 24.3452 93.5 22Z" fill="white"/>
</g>
<defs>
<clipPath id="clip0_133_775">
<rect width="110" height="110" fill="white"/>
</clipPath>
</defs>
</svg>
