<svg width="148" height="148" viewBox="0 0 148 148" fill="none" xmlns="http://www.w3.org/2000/svg">
<path d="M95.5836 30.8333C99.2 30.8328 102.702 32.1036 105.476 34.4235C108.25 36.7435 110.12 39.9649 110.76 43.5243C113.013 43.0269 115.349 43.0415 117.595 43.567C119.842 44.0926 121.942 45.1157 123.74 46.5609C125.539 48.0061 126.99 49.8366 127.987 51.9173C128.984 53.9981 129.501 56.2761 129.5 58.5833V74C129.5 87.084 124.303 99.6321 115.051 108.884C105.799 118.136 93.251 123.333 80.167 123.333H76.0106C66.8495 123.333 57.8693 120.782 50.0764 115.966C42.2834 111.149 35.9854 104.258 31.8881 96.0643L14.3624 61.013C12.1424 56.573 13.7889 50.6345 18.9689 48.507C25.4008 45.8738 31.5119 45.3805 37.8081 48.581C39.6293 49.5142 41.4156 50.7147 43.1669 52.1823V46.25C43.1659 43.7527 43.7716 41.2926 44.9318 39.0812C46.092 36.8698 47.772 34.9734 49.8274 33.555C51.8828 32.1367 54.2519 31.2388 56.7311 30.9387C59.2102 30.6386 61.7252 30.9453 64.0596 31.8323C65.4482 29.6339 67.3707 27.8226 69.648 26.5675C71.9253 25.3124 74.4833 24.6541 77.0836 24.6541C79.6839 24.6541 82.2419 25.3124 84.5192 26.5675C86.7965 27.8226 88.719 29.6339 90.1076 31.8323C91.8572 31.1698 93.7128 30.8313 95.5836 30.8333Z" fill="white"/>
</svg>
