<svg width="771" height="555" viewBox="0 0 771 555" fill="none" xmlns="http://www.w3.org/2000/svg">
<path d="M495.353 277.169C515.471 285.476 531.236 299.558 537.461 313.069C538.149 314.56 539.125 315.9 540.331 317.014C541.538 318.127 542.951 318.993 544.492 319.56C546.033 320.127 547.67 320.385 549.311 320.319C550.952 320.254 552.563 319.866 554.054 319.177C555.544 318.489 556.885 317.514 557.998 316.307C559.112 315.101 559.977 313.687 560.544 312.146C561.111 310.605 561.37 308.968 561.304 307.327C561.238 305.687 560.85 304.075 560.162 302.585C550.556 281.766 528.966 264.005 504.908 254.06C480.686 244.054 451.385 240.89 425.671 252.755C422.661 254.145 420.326 256.674 419.181 259.786C418.035 262.898 418.173 266.337 419.563 269.347C420.953 272.358 423.482 274.692 426.594 275.838C429.706 276.983 433.145 276.846 436.156 275.456C453.656 267.371 475.391 268.906 495.357 277.157" fill="white"/>
<path fill-rule="evenodd" clip-rule="evenodd" d="M312.889 403.998C299.763 367.944 299.87 328.401 313.191 292.419C344.226 208.206 437.644 165.1 521.858 196.135C606.071 227.17 649.177 320.588 618.142 404.802C587.107 489.015 493.688 532.121 409.475 501.086C372.001 487.276 342.673 461.121 324.384 428.909L319.344 456.467L198.734 512.119L168.042 445.602L288.651 389.95L312.889 403.998ZM422.442 465.899C357.663 442.026 324.505 370.165 348.377 305.386C372.25 240.608 444.112 207.449 508.89 231.322C573.669 255.194 606.828 327.056 582.955 391.835C559.082 456.613 487.221 489.772 422.442 465.899Z" fill="white"/>
<path d="M176.041 522.592L145.348 456.076L123.583 466.119C111.335 471.77 105.989 486.279 111.644 498.514L121.88 520.697C127.531 532.944 142.04 538.291 154.275 532.636L176.041 522.592Z" fill="white"/>
</svg>
