<svg width="110" height="110" viewBox="0 0 110 110" fill="none" xmlns="http://www.w3.org/2000/svg">
<path d="M35.3837 75.4233L43.4549 73.095L92.052 23.9158C92.4353 23.523 92.6487 22.9952 92.6462 22.4463C92.6436 21.8975 92.4252 21.3717 92.0382 20.9825L89.1278 18.04C88.9398 17.8467 88.7151 17.6929 88.4669 17.5874C88.2187 17.4819 87.952 17.427 87.6824 17.4257C87.4127 17.4244 87.1455 17.4769 86.8964 17.58C86.6472 17.6831 86.4211 17.8348 86.2312 18.0262L37.7624 67.0771L35.3837 75.4233ZM94.8891 12.21L97.7995 15.1571C101.814 19.2225 101.851 25.7812 97.8728 29.8054L47.7953 80.4879L30.5437 85.4562C30.0221 85.6028 29.4768 85.6453 28.9389 85.5811C28.4009 85.517 27.8809 85.3475 27.4085 85.0823C26.936 84.8171 26.5205 84.4615 26.1855 84.0357C25.8505 83.61 25.6027 83.1224 25.4562 82.6008C25.2314 81.8446 25.2282 81.0397 25.447 80.2817L30.4657 62.6817L80.4103 12.1321C81.36 11.1758 82.4906 10.4182 83.7362 9.90344C84.9818 9.38868 86.3174 9.12709 87.6651 9.13392C89.0128 9.14075 90.3457 9.41585 91.586 9.94319C92.8262 10.4705 93.9491 11.2441 94.8891 12.21ZM42.0937 17.4946C44.367 17.4946 46.2095 19.36 46.2095 21.6608C46.2131 22.2047 46.1095 22.744 45.9046 23.2478C45.6996 23.7516 45.3974 24.2101 45.0151 24.5971C44.6329 24.984 44.1781 25.2918 43.6768 25.5028C43.1755 25.7139 42.6376 25.8241 42.0937 25.8271H25.6303C21.0837 25.8271 17.3987 29.5579 17.3987 34.155V84.1408C17.3987 88.7425 21.0837 92.4733 25.6303 92.4733H75.0203C79.567 92.4733 83.2566 88.7425 83.2566 84.1408V67.4804C83.2566 65.1796 85.0991 63.3142 87.3724 63.3142C89.6457 63.3142 91.4882 65.1796 91.4882 67.485V84.1408C91.4882 93.3442 84.1137 100.806 75.0203 100.806H25.6303C16.537 100.806 9.16699 93.3442 9.16699 84.1408V34.155C9.16699 24.9562 16.537 17.4946 25.6303 17.4946H42.0937Z" fill="white"/>
</svg>
